<?xml version="1.0" encoding="UTF-8"?>
<!DOCTYPE svg PUBLIC "-//W3C//DTD SVG 1.1//EN" "http://www.w3.org/Graphics/SVG/1.1/DTD/svg11.dtd">
<svg xmlns="http://www.w3.org/2000/svg" version="1.1" width="226px" height="245px" style="shape-rendering:geometricPrecision; text-rendering:geometricPrecision; image-rendering:optimizeQuality; fill-rule:evenodd; clip-rule:evenodd" xmlns:xlink="http://www.w3.org/1999/xlink">
<g><path style="opacity:0.004" fill="#000000" d="M 44.5,0.5 C 45.8333,1.16667 45.8333,1.16667 44.5,0.5 Z"/></g>
<g><path style="opacity:0.993" fill="#141619" d="M 25.5,-0.5 C 26.5,-0.5 27.5,-0.5 28.5,-0.5C 32.5,0.833333 36.5,0.833333 40.5,-0.5C 41.5,-0.5 42.5,-0.5 43.5,-0.5C 40.7417,0.966513 41.075,1.63318 44.5,1.5C 46.3402,1.27337 48.3402,1.77337 50.5,3C 49.8333,3.33333 49.1667,3.66667 48.5,4C 52.1074,5.13091 55.774,6.46424 59.5,8C 69.5744,14.3992 79.9077,20.3992 90.5,26C 94.6856,30.3513 98.6856,34.8513 102.5,39.5C 114.119,39.316 124.286,42.9827 133,50.5C 135.448,54.6149 138.281,58.4482 141.5,62C 153.989,63.164 164.823,67.9974 174,76.5C 174.333,76.1667 174.667,75.8333 175,75.5C 187.751,83.1262 200.585,90.6262 213.5,98C 219.22,101.541 223.22,106.374 225.5,112.5C 225.5,114.833 225.5,117.167 225.5,119.5C 224.167,120.5 224.167,121.5 225.5,122.5C 225.5,125.167 225.5,127.833 225.5,130.5C 220.411,140.919 212.411,148.252 201.5,152.5C 192.53,157.161 183.53,161.828 174.5,166.5C 173.833,166.5 173.167,166.5 172.5,166.5C 166.839,166.907 161.172,167.24 155.5,167.5C 154.886,171.135 154.552,174.802 154.5,178.5C 153.694,179.728 152.694,180.728 151.5,181.5C 148.833,181.833 148.833,182.167 151.5,182.5C 150.329,183.345 148.995,184.011 147.5,184.5C 147.5,183.833 147.167,183.5 146.5,183.5C 145.833,183.5 145.167,183.5 144.5,183.5C 146.428,181.526 148.761,180.026 151.5,179C 131.436,179.233 112.436,174.9 94.5,166C 93.6667,165.167 92.8333,164.333 92,163.5C 91.1577,148.994 83.9911,144.494 70.5,150C 66.2842,155.31 65.4509,161.143 68,167.5C 71.9391,172.868 77.1058,174.535 83.5,172.5C 99.9962,183.225 117.996,188.225 137.5,187.5C 137.389,188.117 137.056,188.617 136.5,189C 129.82,189.474 123.154,189.307 116.5,188.5C 116.511,190.547 116.844,192.547 117.5,194.5C 116.827,196.851 116.16,199.184 115.5,201.5C 91.1288,216.352 66.4621,230.685 41.5,244.5C 37.1667,244.5 32.8333,244.5 28.5,244.5C 19.4073,241.406 12.4073,235.74 7.5,227.5C 8.33825,227.158 8.67158,226.492 8.5,225.5C 8.5,224.833 8.16667,224.5 7.5,224.5C 7.5,223.833 7.5,223.167 7.5,222.5C 7.5,221.833 7.16667,221.5 6.5,221.5C 6.5,219.833 6.5,218.167 6.5,216.5C 6.44312,215.391 6.10978,214.391 5.5,213.5C 5.5,202.5 5.5,191.5 5.5,180.5C 7.9575,174.042 9.29083,167.542 9.5,161C 6.90657,158.063 5.57324,154.563 5.5,150.5C 6.01004,138.949 7.01004,127.449 8.5,116C 7.88576,111.15 7.21909,106.316 6.5,101.5C 6.83116,74.9947 6.49783,48.6614 5.5,22.5C 5.88386,18.3961 7.38386,14.7294 10,11.5C 14.7811,6.87138 19.9477,2.87138 25.5,-0.5 Z"/></g>
<g><path style="opacity:0.995" fill="#2d67e9" d="M 28.5,2.5 C 33.9302,2.161 39.2636,2.661 44.5,4C 60.5787,12.7878 76.4121,21.9545 92,31.5C 101.37,50.8524 105.537,71.1857 104.5,92.5C 111.674,99.4069 112.341,106.907 106.5,115C 97.3343,119.821 90.5009,117.655 86,108.5C 84.4225,100.988 87.0891,95.6549 94,92.5C 95.2015,73.8415 91.5348,56.1749 83,39.5C 71.2517,31.3732 59.085,23.8732 46.5,17C 35.4192,10.1453 26.5859,12.312 20,23.5C 18.3938,39.7796 18.0605,56.1129 19,72.5C 20.0495,73.5171 21.2161,73.6838 22.5,73C 31.7738,65.5272 42.1071,59.8606 53.5,56C 57.8905,47.6001 64.5572,45.2667 73.5,49C 79.6974,55.5917 80.0308,62.425 74.5,69.5C 70.9018,72.1346 66.9018,72.9679 62.5,72C 59.702,70.6948 57.0353,69.1948 54.5,67.5C 36.3844,74.8159 21.2177,86.1493 9,101.5C 8.33333,75.1667 8.33333,48.8333 9,22.5C 9.94045,17.9524 11.9405,13.9524 15,10.5C 19.1834,7.1637 23.6834,4.49703 28.5,2.5 Z"/></g>
<g><path style="opacity:0.012" fill="#000000" d="M 5.5,22.5 C 5.16884,49.0053 5.50217,75.3386 6.5,101.5C 7.21909,106.316 7.88576,111.15 8.5,116C 7.01004,127.449 6.01004,138.949 5.5,150.5C 5.57324,154.563 6.90657,158.063 9.5,161C 9.29083,167.542 7.9575,174.042 5.5,180.5C 4.16667,191.5 4.16667,202.5 5.5,213.5C 6.10978,214.391 6.44312,215.391 6.5,216.5C 5.16667,218.167 5.16667,219.833 6.5,221.5C 7.16667,221.5 7.5,221.833 7.5,222.5C 6.16667,223.167 6.16667,223.833 7.5,224.5C 8.16667,224.5 8.5,224.833 8.5,225.5C 7.66175,225.842 7.32842,226.508 7.5,227.5C 5.28171,224.281 4.11505,220.614 4,216.5C 3.33333,204.167 3.33333,191.833 4,179.5C 5.60943,175.286 6.77609,170.953 7.5,166.5C 6.26815,161.638 4.93481,156.805 3.5,152C 4.12628,139.461 5.12628,126.961 6.5,114.5C 5.95204,111.145 5.45204,107.478 5,103.5C 4.16976,76.3302 4.33643,49.3302 5.5,22.5 Z"/></g>
<g><path style="opacity:0.996" fill="#69b1ea" d="M 116.5,46.5 C 117.721,45.5354 119.054,45.702 120.5,47C 124.589,49.1267 128.423,51.6267 132,54.5C 136.681,70.4855 138.681,86.8189 138,103.5C 142.259,107.617 143.592,112.617 142,118.5C 136.765,126.633 129.932,128.299 121.5,123.5C 115.023,114.275 116.523,106.609 126,100.5C 127.895,81.4875 124.728,63.4875 116.5,46.5 Z"/></g>
<g><path style="opacity:0.996" fill="#0f2555" d="M 63.5,53.5 C 70.7983,53.6376 73.1317,57.1376 70.5,64C 62.5997,67.4306 59.433,64.9306 61,56.5C 62.045,55.6266 62.8783,54.6266 63.5,53.5 Z"/></g>
<g><path style="opacity:0.996" fill="#2d67e9" d="M 61.5,79.5 C 77.1966,79.0273 82.03,86.0273 76,100.5C 69.3529,105.828 62.6863,105.828 56,100.5C 35.9627,112.204 20.296,128.204 9,148.5C 8.33333,141.5 8.33333,134.5 9,127.5C 20.4504,111.377 34.9504,98.8773 52.5,90C 54.4747,85.5047 57.4747,82.0047 61.5,79.5 Z"/></g>
<g><path style="opacity:0.996" fill="#10275a" d="M 63.5,85.5 C 72.8189,85.6585 74.8189,89.4918 69.5,97C 62,98.8333 59.1667,96 61,88.5C 62.045,87.6266 62.8783,86.6266 63.5,85.5 Z"/></g>
<g><path style="opacity:0.996" fill="#0f2556" d="M 95.5,98.5 C 104.316,98.9671 106.316,102.8 101.5,110C 95.9633,111.985 92.9633,110.152 92.5,104.5C 92.6284,102.045 93.6284,100.045 95.5,98.5 Z"/></g>
<g><path style="opacity:0.996" fill="#142b59" d="M 126.5,107.5 C 133.468,106.716 136.302,109.716 135,116.5C 131.952,120.01 128.619,120.343 125,117.5C 122.729,113.697 123.229,110.363 126.5,107.5 Z"/></g>
<g><path style="opacity:0.995" fill="#b4e0f0" d="M 62.5,111.5 C 77.9721,112.112 82.4721,119.445 76,133.5C 70.1246,138.392 63.958,138.725 57.5,134.5C 40.7387,146.647 28.2387,162.314 20,181.5C 19.3333,194.167 19.3333,206.833 20,219.5C 23.7591,228.129 30.2591,231.629 39.5,230C 54.0276,222.575 68.0276,214.409 81.5,205.5C 72.6565,201.159 64.1565,196.159 56,190.5C 44.1274,191.961 38.7941,186.628 40,174.5C 45.1975,165.102 52.3642,163.269 61.5,169C 64.5541,173.137 65.7207,177.637 65,182.5C 72.0239,188.096 79.8572,192.263 88.5,195C 96.575,197.011 104.575,199.011 112.5,201C 90.1594,214.506 67.4927,227.506 44.5,240C 27.5888,244.127 15.7555,238.294 9,222.5C 7.44564,208.541 7.11231,194.541 8,180.5C 17.515,157.119 32.515,138.119 53,123.5C 54.2226,117.796 57.3893,113.796 62.5,111.5 Z"/></g>
<g><path style="opacity:0.996" fill="#162a56" d="M 63.5,118.5 C 71.8068,118.28 74.1402,121.78 70.5,129C 63.2434,131.746 60.0768,129.246 61,121.5C 62.045,120.627 62.8783,119.627 63.5,118.5 Z"/></g>
<g><path style="opacity:0.962" fill="#b4e0f0" d="M 144.5,183.5 C 141.669,184.079 139.336,185.412 137.5,187.5C 117.996,188.225 99.9962,183.225 83.5,172.5C 77.1058,174.535 71.9391,172.868 68,167.5C 65.4509,161.143 66.2842,155.31 70.5,150C 83.9911,144.494 91.1577,148.994 92,163.5C 92.8333,164.333 93.6667,165.167 94.5,166C 112.436,174.9 131.436,179.233 151.5,179C 148.761,180.026 146.428,181.526 144.5,183.5 Z"/></g>
<g><path style="opacity:0.983" fill="#69b1ea" d="M 153.5,66.5 C 171.978,77.2413 190.644,87.7413 209.5,98C 223.337,108.181 226.503,121.014 219,136.5C 215.799,140.036 212.299,143.203 208.5,146C 200.172,150.162 192.172,154.829 184.5,160C 180.719,162.225 176.719,163.891 172.5,165C 151.589,166.444 131.756,162.611 113,153.5C 105.327,156.72 99.3267,154.72 95,147.5C 92.4857,134.687 97.6524,128.853 110.5,130C 117.283,132.452 120.45,137.286 120,144.5C 136.607,152.421 154.107,155.588 172.5,154C 183.167,147.667 193.833,141.333 204.5,135C 213.826,126.042 213.826,117.042 204.5,108C 193.5,101.833 182.5,95.6667 171.5,89.5C 170.914,89.7093 170.414,90.0426 170,90.5C 169.794,96.8838 169.294,103.217 168.5,109.5C 176.792,117.846 176.459,125.68 167.5,133C 154.352,136.186 148.185,131.019 149,117.5C 150.947,113.22 153.947,109.887 158,107.5C 159.17,93.5283 157.67,79.8616 153.5,66.5 Z"/></g>
<g><path style="opacity:0.99" fill="#132a59" d="M 103.5,136.5 C 110.468,135.716 113.302,138.716 112,145.5C 107.969,149.719 104.302,149.385 101,144.5C 100.018,141.225 100.851,138.559 103.5,136.5 Z"/></g>
<g><path style="opacity:0.985" fill="#112855" d="M 158.5,115.5 C 166.744,115.228 169.078,118.728 165.5,126C 159.787,129.059 156.453,127.393 155.5,121C 155.863,118.808 156.863,116.974 158.5,115.5 Z"/></g>
<g><path style="opacity:0.011" fill="#000001" d="M 201.5,152.5 C 193.393,158.396 184.726,163.562 175.5,168C 170.207,168.977 164.874,169.477 159.5,169.5C 159.51,173.503 157.843,176.503 154.5,178.5C 154.552,174.802 154.886,171.135 155.5,167.5C 161.172,167.24 166.839,166.907 172.5,166.5C 173.167,167.833 173.833,167.833 174.5,166.5C 183.53,161.828 192.53,157.161 201.5,152.5 Z"/></g>
<g><path style="opacity:0.996" fill="#172b57" d="M 76.5,154.5 C 83.5598,153.725 86.0598,156.725 84,163.5C 79.974,167.631 76.3073,167.298 73,162.5C 71.7801,158.707 72.9468,156.04 76.5,154.5 Z"/></g>
<g><path style="opacity:0.996" fill="#1c305b" d="M 48.5,172.5 C 57.3607,171.823 60.0274,175.323 56.5,183C 50.7343,185.868 47.4009,184.201 46.5,178C 46.3948,175.822 47.0615,173.988 48.5,172.5 Z"/></g>
<g><path style="opacity:0.004" fill="#000000" d="M 151.5,181.5 C 152.833,182.167 152.833,182.167 151.5,181.5 Z"/></g>
<g><path style="opacity:0.012" fill="#020304" d="M 144.5,183.5 C 145.167,183.5 145.833,183.5 146.5,183.5C 147.167,183.5 147.5,183.833 147.5,184.5C 143.461,186.94 139.294,189.273 135,191.5C 134.127,191.265 133.293,190.931 132.5,190.5C 129.557,191.244 126.557,191.744 123.5,192C 121.647,195.887 118.98,199.053 115.5,201.5C 116.16,199.184 116.827,196.851 117.5,194.5C 116.844,192.547 116.511,190.547 116.5,188.5C 123.154,189.307 129.82,189.474 136.5,189C 137.056,188.617 137.389,188.117 137.5,187.5C 139.336,185.412 141.669,184.079 144.5,183.5 Z"/></g>
</svg>
